<!-- This is a modern, simple kitchen whisk icon that fills the entire app icon square -->
<!-- The design uses a coral/red gradient background that fills the whole 180x180 space -->
<svg width="180" height="180" viewBox="0 0 180 180" fill="none" xmlns="http://www.w3.org/2000/svg">
  <!-- Background gradient that fills the entire square - no more circle! -->
  <defs>
    <linearGradient id="bgGradient" x1="0%" y1="0%" x2="100%" y2="100%">
      <stop offset="0%" style="stop-color:#FF6B6B;stop-opacity:1" />
      <stop offset="100%" style="stop-color:#E74C3C;stop-opacity:1" />
    </linearGradient>
    <linearGradient id="whiskGradient" x1="0%" y1="0%" x2="0%" y2="100%">
      <stop offset="0%" style="stop-color:#FFFFFF;stop-opacity:1" />
      <stop offset="100%" style="stop-color:#F1F2F6;stop-opacity:1" />
    </linearGradient>
  </defs>
  
  <!-- Full square background with rounded corners for a modern look -->
  <rect x="0" y="0" width="180" height="180" rx="24" fill="url(#bgGradient)"/>
  
  <!-- Simple, clean whisk design centered in the square -->
  <!-- Whisk handle - straight and clean -->
  <rect x="84" y="90" width="12" height="70" rx="6" fill="url(#whiskGradient)" stroke="#E5E5E5" stroke-width="1"/>
  
  <!-- Whisk wires - simplified and more geometric -->
  <!-- Left wire -->
  <path d="M90 85 Q75 70 60 85 Q75 100 90 85" stroke="#FFFFFF" stroke-width="4" fill="none" stroke-linecap="round" stroke-linejoin="round"/>
  
  <!-- Center wire -->
  <path d="M90 85 Q90 65 90 45 Q90 65 90 85" stroke="#FFFFFF" stroke-width="4" fill="none" stroke-linecap="round" stroke-linejoin="round"/>
  
  <!-- Right wire -->
  <path d="M90 85 Q105 70 120 85 Q105 100 90 85" stroke="#FFFFFF" stroke-width="4" fill="none" stroke-linecap="round" stroke-linejoin="round"/>
  
  <!-- Additional side wires for more whisk-like appearance -->
  <path d="M90 88 Q80 75 70 88 Q80 98 90 88" stroke="#FFFFFF" stroke-width="3" fill="none" stroke-linecap="round" opacity="0.9"/>
  <path d="M90 88 Q100 75 110 88 Q100 98 90 88" stroke="#FFFFFF" stroke-width="3" fill="none" stroke-linecap="round" opacity="0.9"/>
  
  <!-- Handle grip texture - simple lines for detail -->
  <line x1="87" y1="100" x2="93" y2="100" stroke="#E5E5E5" stroke-width="1" opacity="0.7"/>
  <line x1="87" y1="105" x2="93" y2="105" stroke="#E5E5E5" stroke-width="1" opacity="0.7"/>
  <line x1="87" y1="110" x2="93" y2="110" stroke="#E5E5E5" stroke-width="1" opacity="0.7"/>
  
</svg> 